<?xml version="1.0" encoding="UTF-8"?>
<!DOCTYPE svg PUBLIC "-//W3C//DTD SVG 1.1//EN" "http://www.w3.org/Graphics/SVG/1.1/DTD/svg11.dtd">
<svg xmlns="http://www.w3.org/2000/svg" version="1.1" width="3897px" height="732px" style="shape-rendering:geometricPrecision; text-rendering:geometricPrecision; image-rendering:optimizeQuality; fill-rule:evenodd; clip-rule:evenodd" xmlns:xlink="http://www.w3.org/1999/xlink">
<g><path style="opacity:1" fill="#ed1d24" d="M 300.5,72.5 C 406.915,67.1362 491.748,106.803 555,191.5C 604.55,266.136 617.55,346.802 594,433.5C 563.729,526.77 502.229,589.27 409.5,621C 301.666,650.706 206.999,627.706 125.5,552C 58.8897,481.818 33.0564,398.652 48,302.5C 69.0912,202.755 126.258,132.589 219.5,92C 245.759,81.8506 272.759,75.3506 300.5,72.5 Z"/></g>
<g><path style="opacity:1" fill="#80bf9e" d="M 849.5,72.5 C 838.265,73.1867 826.932,73.8533 815.5,74.5C 826.451,72.5223 837.784,71.8556 849.5,72.5 Z"/></g>
<g><path style="opacity:1" fill="#03803f" d="M 849.5,72.5 C 891.188,72.0645 932.855,72.5645 974.5,74C 990.489,75.3251 1005.16,80.3251 1018.5,89C 1032.55,102.349 1037.05,118.516 1032,137.5C 1024.22,165.206 1007.72,186.04 982.5,200C 999.191,205.545 1008.69,217.045 1011,234.5C 1011.12,287.417 985.955,321.917 935.5,338C 921.396,341.739 907.063,344.073 892.5,345C 843.501,345.5 794.501,345.667 745.5,345.5C 768.677,255.125 792.011,164.791 815.5,74.5C 826.932,73.8533 838.265,73.1867 849.5,72.5 Z M 886.5,136.5 C 902.531,136.176 918.531,136.676 934.5,138C 943.487,139.977 947.32,145.477 946,154.5C 941.933,170.895 931.433,179.729 914.5,181C 901.504,181.5 888.504,181.667 875.5,181.5C 879.009,166.465 882.675,151.465 886.5,136.5 Z M 862.5,231.5 C 875.837,231.333 889.171,231.5 902.5,232C 931.736,233.685 938.069,246.685 921.5,271C 911.104,278.485 899.438,281.819 886.5,281C 874.153,281.833 861.82,281.666 849.5,280.5C 853.684,264.094 858.018,247.761 862.5,231.5 Z"/></g>
<g><path style="opacity:1" fill="#05813f" d="M 1096.5,72.5 C 1122.18,72.1669 1147.84,72.5002 1173.5,73.5C 1169.01,89.1225 1164.68,104.789 1160.5,120.5C 1134.83,121.833 1109.17,121.833 1083.5,120.5C 1087.84,104.487 1092.17,88.4873 1096.5,72.5 Z"/></g>
<g><path style="opacity:1" fill="#06813f" d="M 1708.5,343.5 C 1686.83,343.5 1665.17,343.5 1643.5,343.5C 1643.5,341.833 1643.5,340.167 1643.5,338.5C 1643.71,333.702 1643.71,329.036 1643.5,324.5C 1611.24,348.719 1575.57,355.552 1536.5,345C 1516.12,335.758 1507.62,319.924 1511,297.5C 1518.12,262.044 1539.29,239.877 1574.5,231C 1582.42,228.949 1590.42,227.283 1598.5,226C 1614.89,224.076 1631.23,221.742 1647.5,219C 1655.18,217.575 1662.01,214.409 1668,209.5C 1674.45,199.746 1672.28,192.912 1661.5,189C 1648.38,185.767 1636.55,188.267 1626,196.5C 1623.65,199.194 1621.82,202.194 1620.5,205.5C 1595.91,206.49 1571.24,206.823 1546.5,206.5C 1551.54,184.909 1563.54,168.409 1582.5,157C 1603.51,146.262 1625.85,140.596 1649.5,140C 1671.69,138.496 1693.69,139.829 1715.5,144C 1742.9,150.938 1754.07,168.438 1749,196.5C 1739.61,238.065 1729.28,279.398 1718,320.5C 1716.08,327.981 1717.91,334.314 1723.5,339.5C 1722.75,340.736 1722.42,342.07 1722.5,343.5C 1717.83,343.5 1713.17,343.5 1708.5,343.5 Z M 1655.5,257.5 C 1656.24,257.369 1656.91,257.536 1657.5,258C 1654.26,275.835 1645.26,289.835 1630.5,300C 1620.41,304.863 1610.07,305.53 1599.5,302C 1592.49,297.902 1590.66,292.069 1594,284.5C 1596.79,279.381 1600.62,275.214 1605.5,272C 1622.27,267.144 1638.94,262.311 1655.5,257.5 Z"/></g>
<g><path style="opacity:1" fill="#05813f" d="M 1801.5,146.5 C 1824.93,145.173 1848.26,145.173 1871.5,146.5C 1869.49,155.526 1867.66,164.526 1866,173.5C 1891.06,145.148 1922.22,134.315 1959.5,141C 1984.28,148.016 1996.28,164.516 1995.5,190.5C 1995.26,196.189 1994.76,201.856 1994,207.5C 1983.14,252.612 1971.81,297.612 1960,342.5C 1934.23,343.827 1908.4,343.827 1882.5,342.5C 1893.74,302.453 1903.74,262.12 1912.5,221.5C 1912.23,208.734 1905.73,202.067 1893,201.5C 1876.33,202.498 1864.99,210.831 1859,226.5C 1848.19,265.073 1837.69,303.74 1827.5,342.5C 1801.83,343.833 1776.17,343.833 1750.5,342.5C 1767.51,277.139 1784.51,211.806 1801.5,146.5 Z"/></g>
<g><path style="opacity:1" fill="#06813f" d="M 1447.5,139.5 C 1463.73,138.512 1479.06,141.679 1493.5,149C 1503.58,156.991 1509.08,167.491 1510,180.5C 1510.76,192.967 1509.76,205.301 1507,217.5C 1496.01,259.81 1485.17,302.143 1474.5,344.5C 1448.83,344.5 1423.17,344.5 1397.5,344.5C 1406.5,308.15 1415.67,271.816 1425,235.5C 1432.74,209.582 1423.57,199.415 1397.5,205C 1387.75,210.613 1380.92,218.78 1377,229.5C 1366.05,267.642 1355.88,305.975 1346.5,344.5C 1320.83,344.5 1295.17,344.5 1269.5,344.5C 1278.35,308.44 1287.52,272.44 1297,236.5C 1299.9,227.435 1299.9,218.435 1297,209.5C 1292.75,204.748 1287.42,202.748 1281,203.5C 1268.92,203.706 1259.92,209.039 1254,219.5C 1252.33,222.833 1250.67,226.167 1249,229.5C 1238.05,267.642 1227.88,305.975 1218.5,344.5C 1192.82,344.328 1167.16,344.661 1141.5,345.5C 1157.86,279.073 1174.69,212.74 1192,146.5C 1215.43,145.506 1238.93,145.173 1262.5,145.5C 1260.8,154.606 1258.97,163.606 1257,172.5C 1271.45,157.853 1288.62,147.687 1308.5,142C 1321.91,139.772 1335.24,140.105 1348.5,143C 1364.96,147.791 1374.79,158.624 1378,175.5C 1396.8,154.821 1419.97,142.821 1447.5,139.5 Z"/></g>
<g><path style="opacity:1" fill="#81c09f" d="M 1871.5,146.5 C 1848.26,145.173 1824.93,145.173 1801.5,146.5C 1812.98,145.168 1824.81,144.501 1837,144.5C 1848.83,144.833 1860.67,145.167 1872.5,145.5C 1872.38,146.107 1872.04,146.44 1871.5,146.5 Z"/></g>
<g><path style="opacity:1" fill="#05813f" d="M 1102.5,344.5 C 1076.99,344.831 1051.66,344.498 1026.5,343.5C 1043.01,277.797 1059.68,212.13 1076.5,146.5C 1102.18,146.745 1127.85,146.412 1153.5,145.5C 1137.28,212.047 1120.28,278.38 1102.5,344.5 Z"/></g>
<g><path style="opacity:1" fill="#80bf9e" d="M 1620.5,205.5 C 1608.52,206.832 1596.19,207.499 1583.5,207.5C 1571,207.5 1558.66,207.167 1546.5,206.5C 1571.24,206.823 1595.91,206.49 1620.5,205.5 Z"/></g>
<g><path style="opacity:1" fill="#fffcfc" d="M 487.5,302.5 C 522.331,301.336 557.331,301.169 592.5,302C 547.833,334 503.167,366 458.5,398C 449.905,404.565 440.238,407.232 429.5,406C 416.256,398.428 403.256,390.428 390.5,382C 383.203,379.603 376.203,380.269 369.5,384C 342.113,404.387 314.446,424.387 286.5,444C 279.453,448.46 271.786,451.127 263.5,452C 218.167,452.667 172.833,452.667 127.5,452C 172.989,418.422 218.656,385.089 264.5,352C 195.162,351.884 125.829,351.717 56.5,351.5C 68.952,342.101 81.6186,332.934 94.5,324C 183.351,323.827 272.184,323.327 361,322.5C 368.561,322.849 375.728,324.682 382.5,328C 396.772,340.27 410.439,353.27 423.5,367C 428.739,371.283 434.739,372.616 441.5,371C 446.28,369.444 450.613,367.111 454.5,364C 475.167,349 495.833,334 516.5,319C 506.806,313.488 497.139,307.988 487.5,302.5 Z"/></g>
<g><path style="opacity:1" fill="#80bf9f" d="M 1643.5,338.5 C 1643.5,340.167 1643.5,341.833 1643.5,343.5C 1665.17,343.5 1686.83,343.5 1708.5,343.5C 1686.67,344.497 1664.67,344.831 1642.5,344.5C 1642.21,342.265 1642.54,340.265 1643.5,338.5 Z"/></g>
<g><path style="opacity:1" fill="#80bf9f" d="M 1026.5,343.5 C 1051.66,344.498 1076.99,344.831 1102.5,344.5C 1077,345.829 1051.33,345.829 1025.5,344.5C 1025.62,343.893 1025.96,343.56 1026.5,343.5 Z"/></g>
<g><path style="opacity:1" fill="#0a8140" d="M 1368.5,422.5 C 1415.24,420.514 1443.91,442.18 1454.5,487.5C 1453.62,488.251 1452.62,488.751 1451.5,489C 1439.81,490.42 1428.14,491.92 1416.5,493.5C 1409.69,467.087 1392.69,455.587 1365.5,459C 1343.89,463.389 1328.39,475.555 1319,495.5C 1307.14,522.067 1304.81,549.401 1312,577.5C 1319.72,593.037 1332.38,600.704 1350,600.5C 1362.98,599.796 1375.48,596.963 1387.5,592C 1391.19,590.491 1394.53,588.491 1397.5,586C 1399.4,576.609 1401.4,567.276 1403.5,558C 1387.5,557.5 1371.5,557.333 1355.5,557.5C 1357.24,545.791 1359.24,534.124 1361.5,522.5C 1390.17,522.167 1418.84,522.5 1447.5,523.5C 1441.73,552.834 1435.9,582.167 1430,611.5C 1395.13,634.673 1357.3,641.506 1316.5,632C 1297.42,624.588 1283.92,611.421 1276,592.5C 1262.07,544.074 1269.74,499.407 1299,458.5C 1317.25,436.794 1340.42,424.794 1368.5,422.5 Z"/></g>
<g><path style="opacity:1" fill="#0b8241" d="M 2271.5,422.5 C 2293,420.87 2312.33,426.37 2329.5,439C 2342.49,451.814 2349.33,467.314 2350,485.5C 2337.25,486.746 2324.42,487.412 2311.5,487.5C 2310.43,470.935 2301.77,461.102 2285.5,458C 2276.24,456.807 2267.24,457.807 2258.5,461C 2249.29,467.304 2246.45,475.804 2250,486.5C 2251.38,488.754 2252.88,490.92 2254.5,493C 2269.41,502.621 2285.07,510.955 2301.5,518C 2333.42,533.389 2344.26,558.223 2334,592.5C 2320.06,623.156 2296.06,637.823 2262,636.5C 2237.14,637.552 2216.14,629.219 2199,611.5C 2190.16,597.468 2186.33,582.134 2187.5,565.5C 2200.14,564.482 2212.81,563.815 2225.5,563.5C 2225.39,571.814 2226.89,579.814 2230,587.5C 2233.83,592.841 2238.99,596.341 2245.5,598C 2256.83,601.333 2268.17,601.333 2279.5,598C 2293.1,593.31 2298.93,583.81 2297,569.5C 2294.22,563.057 2289.72,558.223 2283.5,555C 2264.2,546.018 2245.53,536.018 2227.5,525C 2211.6,508.548 2206.43,489.048 2212,466.5C 2216.7,449.135 2227.2,436.635 2243.5,429C 2252.69,425.599 2262.03,423.432 2271.5,422.5 Z"/></g>
<g><path style="opacity:1" fill="#0b8241" d="M 3759.5,422.5 C 3779.02,421.365 3797.02,425.865 3813.5,436C 3829.44,449.039 3837.44,465.872 3837.5,486.5C 3824.83,486.767 3812.16,487.1 3799.5,487.5C 3798.42,470.919 3789.75,461.086 3773.5,458C 3764.21,456.741 3755.21,457.741 3746.5,461C 3737.96,466.596 3734.79,474.429 3737,484.5C 3738.3,488.274 3740.47,491.441 3743.5,494C 3764.2,505.339 3784.87,516.672 3805.5,528C 3818.99,538.821 3825.66,552.987 3825.5,570.5C 3823.33,602.018 3807.33,622.852 3777.5,633C 3753.59,638.884 3730.26,637.217 3707.5,628C 3690.99,619.813 3680.82,606.646 3677,588.5C 3675.54,580.899 3674.71,573.232 3674.5,565.5C 3687.15,564.393 3699.82,563.893 3712.5,564C 3713.01,572.901 3715.18,581.401 3719,589.5C 3723.97,594.902 3730.14,598.069 3737.5,599C 3750.78,601.59 3763.45,599.923 3775.5,594C 3786.48,585.036 3788.31,574.536 3781,562.5C 3777.05,558.555 3772.55,555.389 3767.5,553C 3749.74,545.288 3732.74,536.288 3716.5,526C 3700.44,510.826 3694.61,492.326 3699,470.5C 3703.13,450.368 3714.63,436.202 3733.5,428C 3742.13,425.308 3750.8,423.475 3759.5,422.5 Z"/></g>
<g><path style="opacity:1" fill="#088140" d="M 723.5,426.5 C 755.529,426.061 787.529,426.561 819.5,428C 842.476,431.644 856.309,444.811 861,467.5C 864.424,494.998 853.591,514.332 828.5,525.5C 852.763,537.056 861.597,556.056 855,582.5C 846.351,613.59 825.851,630.09 793.5,632C 756.835,632.5 720.168,632.667 683.5,632.5C 696.711,563.779 710.044,495.112 723.5,426.5 Z M 756.5,461.5 C 773.538,461.107 790.538,461.607 807.5,463C 816.961,465.796 821.961,472.13 822.5,482C 819.229,500.921 807.896,509.921 788.5,509C 774.837,509.5 761.171,509.667 747.5,509.5C 750.285,493.459 753.285,477.459 756.5,461.5 Z M 740.5,546.5 C 760.554,546.048 780.554,546.548 800.5,548C 812.54,553.241 817.373,562.408 815,575.5C 810.806,589.692 801.306,597.192 786.5,598C 767.836,598.5 749.17,598.667 730.5,598.5C 733.454,581.063 736.788,563.729 740.5,546.5 Z"/></g>
<g><path style="opacity:1" fill="#088140" d="M 967.5,426.5 C 982.5,426.5 997.5,426.5 1012.5,426.5C 1022.5,495.167 1032.5,563.833 1042.5,632.5C 1029.83,632.5 1017.17,632.5 1004.5,632.5C 1002.75,617.463 1000.75,602.463 998.5,587.5C 973.831,587.333 949.164,587.5 924.5,588C 917.039,602.422 909.706,616.922 902.5,631.5C 888.512,632.666 874.512,632.833 860.5,632C 896.426,563.591 932.093,495.091 967.5,426.5 Z M 982.5,472.5 C 986.643,498.965 990.31,525.632 993.5,552.5C 975.164,552.667 956.83,552.5 938.5,552C 953.306,525.553 967.972,499.053 982.5,472.5 Z"/></g>
<g><path style="opacity:1" fill="#098140" d="M 1105.5,426.5 C 1118.41,426.178 1131.25,426.511 1144,427.5C 1160.47,472.577 1177.14,517.577 1194,562.5C 1202.54,517.476 1211.2,472.476 1220,427.5C 1232.44,426.179 1244.94,426.179 1257.5,427.5C 1244.14,495.449 1230.98,563.449 1218,631.5C 1205.33,632.833 1192.67,632.833 1180,631.5C 1163.53,586.423 1146.86,541.423 1130,496.5C 1121.18,541.79 1112.68,587.123 1104.5,632.5C 1091.83,632.5 1079.17,632.5 1066.5,632.5C 1079.76,563.881 1092.76,495.214 1105.5,426.5 Z"/></g>
<g><path style="opacity:1" fill="#098140" d="M 1502.5,426.5 C 1515.83,426.5 1529.17,426.5 1542.5,426.5C 1531.69,483.398 1520.69,540.231 1509.5,597C 1541.5,597.5 1573.5,597.667 1605.5,597.5C 1603.76,609.211 1601.76,620.878 1599.5,632.5C 1553.83,632.667 1508.17,632.5 1462.5,632C 1476.1,563.579 1489.43,495.079 1502.5,426.5 Z"/></g>
<g><path style="opacity:1" fill="#088140" d="M 1716.5,426.5 C 1731.58,425.86 1746.41,426.526 1761,428.5C 1771.22,496.506 1781.38,564.506 1791.5,632.5C 1778.83,632.5 1766.17,632.5 1753.5,632.5C 1751.31,617.529 1749.31,602.529 1747.5,587.5C 1722.83,587.333 1698.16,587.5 1673.5,588C 1666.09,602.824 1658.42,617.491 1650.5,632C 1636.83,632.667 1623.17,632.667 1609.5,632C 1645.31,563.552 1680.97,495.052 1716.5,426.5 Z M 1730.5,473.5 C 1731.12,473.611 1731.62,473.944 1732,474.5C 1735.36,500.532 1738.86,526.532 1742.5,552.5C 1724.16,552.667 1705.83,552.5 1687.5,552C 1702.24,526.02 1716.57,499.853 1730.5,473.5 Z"/></g>
<g><path style="opacity:1" fill="#098140" d="M 1854.5,426.5 C 1880.5,426.333 1906.5,426.5 1932.5,427C 1959.16,429.404 1977.66,442.904 1988,467.5C 1995.56,490.31 1997.56,513.643 1994,537.5C 1989.24,569.213 1974.74,595.38 1950.5,616C 1937.3,625.264 1922.63,630.597 1906.5,632C 1875.83,632.833 1845.16,632.667 1814.5,631.5C 1828.09,563.21 1841.42,494.877 1854.5,426.5 Z M 1893.5,598.5 C 1882.65,598.828 1871.99,598.494 1861.5,597.5C 1870.29,552.197 1878.96,506.864 1887.5,461.5C 1939.14,452.308 1961.64,473.641 1955,525.5C 1952.99,545.506 1945.99,563.506 1934,579.5C 1923.75,592.644 1910.25,598.977 1893.5,598.5 Z"/></g>
<g><path style="opacity:1" fill="#04803f" d="M 2050.5,597.5 C 2087.01,597.835 2123.34,598.835 2159.5,600.5C 2158.2,611.16 2156.2,621.66 2153.5,632C 2103.83,632.667 2054.17,632.667 2004.5,632C 2017.89,563.872 2031.23,495.705 2044.5,427.5C 2091.5,426.5 2138.5,426.167 2185.5,426.5C 2183.5,438.165 2181.5,449.832 2179.5,461.5C 2145.5,461.5 2111.5,461.5 2077.5,461.5C 2074.7,476.81 2072.04,492.144 2069.5,507.5C 2101.83,507.5 2134.17,507.5 2166.5,507.5C 2164.76,519.211 2162.76,530.878 2160.5,542.5C 2127.83,542.167 2095.16,542.5 2062.5,543.5C 2058.37,561.479 2054.37,579.479 2050.5,597.5 Z"/></g>
<g><path style="opacity:1" fill="#0a8140" d="M 2397.5,426.5 C 2410.83,426.5 2424.17,426.5 2437.5,426.5C 2432.76,452.551 2427.76,478.551 2422.5,504.5C 2446.5,505.833 2470.5,505.833 2494.5,504.5C 2499.93,478.583 2504.93,452.583 2509.5,426.5C 2522.83,426.5 2536.17,426.5 2549.5,426.5C 2536.72,495.207 2523.72,563.873 2510.5,632.5C 2497.17,632.5 2483.83,632.5 2470.5,632.5C 2476.04,602.143 2481.7,571.81 2487.5,541.5C 2463.5,541.5 2439.5,541.5 2415.5,541.5C 2409.73,571.813 2404.06,602.147 2398.5,632.5C 2385.17,632.5 2371.83,632.5 2358.5,632.5C 2371.28,563.795 2384.28,495.128 2397.5,426.5 Z"/></g>
<g><path style="opacity:1" fill="#088140" d="M 2704.5,426.5 C 2719.5,426.5 2734.5,426.5 2749.5,426.5C 2759.57,495.076 2769.9,563.576 2780.5,632C 2767.59,632.822 2754.76,632.655 2742,631.5C 2740.03,616.923 2737.87,602.423 2735.5,588C 2710.83,587.167 2686.16,587.334 2661.5,588.5C 2654.29,603.078 2646.96,617.578 2639.5,632C 2625.82,632.833 2612.15,632.666 2598.5,631.5C 2634.11,563.27 2669.45,494.937 2704.5,426.5 Z M 2719.5,472.5 C 2723.97,498.919 2727.64,525.585 2730.5,552.5C 2712.49,552.833 2694.49,552.5 2676.5,551.5C 2691.11,525.272 2705.45,498.939 2719.5,472.5 Z"/></g>
<g><path style="opacity:1" fill="#098140" d="M 2840.5,426.5 C 2853.83,426.5 2867.17,426.5 2880.5,426.5C 2867.5,495.167 2854.5,563.833 2841.5,632.5C 2828.17,632.5 2814.83,632.5 2801.5,632.5C 2814.28,563.795 2827.28,495.128 2840.5,426.5 Z"/></g>
<g><path style="opacity:1" fill="#098140" d="M 2916.5,426.5 C 2949.5,426.333 2982.5,426.5 3015.5,427C 3038.69,427.832 3053.52,439.332 3060,461.5C 3065.29,483.841 3061.63,504.508 3049,523.5C 3037.23,536.134 3022.73,543.634 3005.5,546C 3014.89,557.257 3022.39,569.757 3028,583.5C 3034.9,599.524 3041.4,615.691 3047.5,632C 3033.17,632.667 3018.83,632.667 3004.5,632C 2997.93,612.618 2990.76,593.451 2983,574.5C 2979.32,565.278 2973.82,557.444 2966.5,551C 2955.31,547.248 2944.14,546.748 2933,549.5C 2927.64,577.144 2922.47,604.811 2917.5,632.5C 2904.17,632.5 2890.83,632.5 2877.5,632.5C 2890.24,563.788 2903.24,495.122 2916.5,426.5 Z M 2949.5,461.5 C 2966.5,461.333 2983.5,461.5 3000.5,462C 3016.57,462.403 3023.74,470.57 3022,486.5C 3016.51,505.015 3004.01,514.515 2984.5,515C 2969.49,515.833 2954.49,515.666 2939.5,514.5C 2943.35,496.93 2946.68,479.263 2949.5,461.5 Z"/></g>
<g><path style="opacity:1" fill="#098140" d="M 3107.5,426.5 C 3120.83,426.5 3134.17,426.5 3147.5,426.5C 3136.94,483.447 3125.94,540.28 3114.5,597C 3146.5,597.5 3178.5,597.667 3210.5,597.5C 3208.82,609.221 3206.82,620.888 3204.5,632.5C 3159.17,632.5 3113.83,632.5 3068.5,632.5C 3081.24,563.787 3094.24,495.12 3107.5,426.5 Z"/></g>
<g><path style="opacity:1" fill="#098140" d="M 3266.5,426.5 C 3279.85,426.167 3293.18,426.501 3306.5,427.5C 3293.23,495.705 3279.89,563.872 3266.5,632C 3253.15,632.833 3239.82,632.666 3226.5,631.5C 3239.94,563.182 3253.28,494.848 3266.5,426.5 Z"/></g>
<g><path style="opacity:1" fill="#098140" d="M 3342.5,426.5 C 3355.17,426.5 3367.83,426.5 3380.5,426.5C 3396.5,471.657 3413,516.657 3430,561.5C 3439.05,517.25 3447.72,472.916 3456,428.5C 3468.25,426.532 3480.75,425.865 3493.5,426.5C 3480.5,495.167 3467.5,563.833 3454.5,632.5C 3441.82,632.832 3429.15,632.499 3416.5,631.5C 3400.09,587.027 3383.43,542.694 3366.5,498.5C 3357.45,543.089 3348.78,587.755 3340.5,632.5C 3327.83,632.667 3315.16,632.5 3302.5,632C 3316.02,563.558 3329.36,495.058 3342.5,426.5 Z"/></g>
<g><path style="opacity:1" fill="#04803f" d="M 3538.5,597.5 C 3574.83,598.167 3611.17,598.833 3647.5,599.5C 3645.89,610.239 3643.89,620.906 3641.5,631.5C 3591.83,632.833 3542.17,632.833 3492.5,631.5C 3505.86,563.551 3519.02,495.551 3532,427.5C 3579.09,426.503 3626.26,426.17 3673.5,426.5C 3671.24,438.124 3669.24,449.791 3667.5,461.5C 3633.5,461.5 3599.5,461.5 3565.5,461.5C 3562.82,476.756 3559.82,491.922 3556.5,507C 3589.16,507.5 3621.83,507.667 3654.5,507.5C 3652.24,519.122 3650.24,530.789 3648.5,542.5C 3615.5,542.5 3582.5,542.5 3549.5,542.5C 3546.22,560.909 3542.55,579.243 3538.5,597.5 Z"/></g>
<g><path style="opacity:1" fill="#7fbf9e" d="M 2050.5,597.5 C 2087.17,597.5 2123.83,597.5 2160.5,597.5C 2160.74,598.791 2160.4,599.791 2159.5,600.5C 2123.34,598.835 2087.01,597.835 2050.5,597.5 Z"/></g>
<g><path style="opacity:1" fill="#80bf9e" d="M 3538.5,597.5 C 3575.17,597.167 3611.84,597.5 3648.5,598.5C 3648.38,599.107 3648.04,599.44 3647.5,599.5C 3611.17,598.833 3574.83,598.167 3538.5,597.5 Z"/></g>
<g><path style="opacity:1" fill="#7cbd9c" d="M 1861.5,597.5 C 1871.99,598.494 1882.65,598.828 1893.5,598.5C 1882.66,599.824 1871.66,599.824 1860.5,598.5C 1860.62,597.893 1860.96,597.56 1861.5,597.5 Z"/></g>
</svg>
