<?xml version="1.0" encoding="UTF-8"?>
<svg xmlns="http://www.w3.org/2000/svg" xmlns:xlink="http://www.w3.org/1999/xlink" width="30px" height="30px" viewBox="0 0 30 30" version="1.1">
<g id="surface1">
<path style=" stroke:none;fill-rule:nonzero;fill:rgb(91.764706%,13.72549%,18.823529%);fill-opacity:1;" d="M 13.886719 3.40625 C 12.109375 3.585938 10.1875 4.25 8.730469 5.1875 C 6.109375 6.867188 4.234375 9.585938 3.597656 12.648438 C 2.753906 16.699219 4.1875 21.023438 7.28125 23.734375 C 10.839844 26.851562 15.820312 27.53125 20.085938 25.488281 C 25.886719 22.699219 28.304688 15.671875 25.460938 9.875 C 23.328125 5.53125 18.667969 2.921875 13.886719 3.40625 Z M 26.097656 12.0625 C 26.070312 12.09375 24.738281 13.042969 23.144531 14.167969 C 21.082031 15.632812 20.179688 16.242188 20 16.28125 C 19.59375 16.390625 19.296875 16.28125 18.480469 15.757812 C 17.695312 15.242188 17.382812 15.140625 17.097656 15.296875 C 17.023438 15.34375 16.171875 15.945312 15.21875 16.628906 C 14.257812 17.3125 13.324219 17.945312 13.136719 18.035156 L 12.804688 18.195312 L 9.8125 18.210938 C 7.992188 18.222656 6.851562 18.203125 6.882812 18.171875 C 6.921875 18.140625 8.210938 17.203125 9.757812 16.085938 C 11.304688 14.964844 12.574219 14.046875 12.578125 14.039062 C 12.585938 14.03125 10.625 14.039062 8.214844 14.050781 L 3.835938 14.074219 L 4.664062 13.484375 L 5.496094 12.890625 L 11.179688 12.890625 C 16.78125 12.890625 16.875 12.890625 17.191406 13.015625 C 17.460938 13.113281 17.671875 13.28125 18.421875 14.003906 C 19.390625 14.9375 19.539062 15.023438 19.914062 14.894531 C 20.085938 14.835938 23.023438 12.773438 23.027344 12.714844 C 23.027344 12.695312 22.851562 12.59375 22.640625 12.480469 C 22.421875 12.367188 22.15625 12.21875 22.039062 12.148438 L 21.828125 12.015625 L 23.988281 12.011719 C 25.296875 12.011719 26.132812 12.035156 26.097656 12.0625 Z M 26.097656 12.0625 "/>
</g>
</svg>
