<?xml version="1.0" standalone="no"?>
<!DOCTYPE svg>
<svg version="1.0" xmlns="http://www.w3.org/2000/svg"
 width="512.000000pt" height="512.000000pt" viewBox="0 0 512.000000 512.000000"
 preserveAspectRatio="xMidYMid meet">

<g transform="translate(0.000000,512.000000) scale(0.100000,-0.100000)"
fill="#000000" stroke="none">
<path fill="#ea2330" d="M2370 4539 c-303 -31 -631 -144 -880 -304 -447 -287 -767 -751 -876
-1274 -144 -691 101 -1429 629 -1892 607 -532 1457 -648 2185 -299 990 476
1403 1675 917 2665 -364 741 -1159 1186 -1975 1104z m2084 -1478 c-5 -5 -232
-167 -504 -359 -352 -250 -506 -354 -537 -361 -69 -18 -120 0 -259 90 -134 88
-187 105 -236 78 -13 -8 -158 -110 -321 -227 -164 -117 -323 -225 -355 -240
l-57 -27 -510 -3 c-311 -2 -506 1 -500 7 6 5 226 165 490 356 264 191 481 348
482 349 1 1 -334 0 -745 -2 l-747 -4 141 101 142 101 970 0 c956 0 972 0 1026
-21 46 -17 82 -46 210 -169 165 -159 191 -174 255 -152 29 10 530 362 531 372
0 3 -30 21 -66 40 -37 19 -83 45 -103 57 l-36 22 369 1 c223 0 366 -4 360 -9z"/>
</g>
</svg>
