<?xml version="1.0" standalone="no"?>
<!DOCTYPE svg PUBLIC "-//W3C//DTD SVG 20010904//EN"
 "http://www.w3.org/TR/2001/REC-SVG-20010904/DTD/svg10.dtd">
<svg version="1.0" xmlns="http://www.w3.org/2000/svg"
 width="3897.000000pt" height="732.000000pt" viewBox="0 0 3897.000000 732.000000"
 preserveAspectRatio="xMidYMid meet">
<metadata>
Created by potrace 1.16, written by Peter Selinger 2001-2019
</metadata>
<g transform="translate(0.000000,732.000000) scale(0.100000,-0.100000)"
fill="#000000" stroke="none">
<path fill="#ed1c24" d="M2995 6579 c-553 -52 -1063 -256 -1499 -602 -121 -97 -336 -310 -430
-427 -343 -430 -549 -935 -607 -1490 -15 -147 -6 -549 16 -685 99 -622 365
-1149 794 -1575 148 -148 250 -231 421 -345 270 -180 555 -308 859 -385 860
-218 1762 -26 2454 522 122 97 337 310 431 428 333 417 537 904 602 1439 25
211 16 594 -20 799 -240 1364 -1410 2343 -2786 2331 -80 -1 -185 -5 -235 -10z
m2925 -2293 c-39 -37 -1391 -991 -1430 -1009 -53 -24 -156 -34 -200 -19 -17 6
-112 64 -212 129 -175 113 -184 117 -243 121 -48 3 -68 -1 -102 -20 -23 -13
-228 -156 -455 -319 -227 -163 -437 -309 -467 -323 -106 -54 -128 -56 -861
-56 -660 0 -674 0 -655 19 11 10 315 231 675 491 360 260 662 480 670 488 13
13 -111 14 -1028 8 -671 -4 -1043 -3 -1040 3 1 5 86 70 188 143 l185 133 1345
5 c740 3 1372 2 1405 -3 106 -13 147 -41 362 -251 110 -107 213 -201 231 -210
41 -21 117 -20 167 3 53 24 708 494 707 506 -1 6 -61 42 -133 82 -72 39 -136
76 -142 82 -8 8 134 11 518 11 454 0 527 -2 515 -14z"/>
<path fill="#00803e" d="M8338 6583 l-168 -3 -14 -53 c-34 -118 -686 -2646 -686 -2657 0 -9
172 -11 748 -7 805 5 859 8 1073 62 353 89 594 274 724 559 169 367 117 682
-131 798 l-65 30 73 49 c199 132 356 330 412 518 97 329 -30 561 -356 651
-179 49 -237 53 -858 55 -322 1 -660 0 -752 -2z m1014 -644 c37 -8 63 -22 85
-44 29 -29 33 -39 33 -87 0 -119 -68 -221 -182 -274 l-63 -29 -239 -3 c-194
-3 -238 -1 -234 10 2 7 29 109 58 226 l54 212 218 0 c124 0 240 -5 270 -11z
m-165 -959 c23 -7 59 -27 80 -45 l38 -33 0 -83 c-1 -97 -24 -158 -83 -217 -81
-81 -182 -102 -494 -102 l-236 0 64 248 c35 136 64 249 64 250 0 10 530 -7
567 -18z"/>
<path fill="#00803e" d="M10912 6353 c-34 -131 -62 -241 -62 -246 0 -4 170 -6 377 -5 l377 3
58 215 c31 118 60 227 63 243 l7 27 -379 0 -378 0 -63 -237z"/>
<path fill="#00803e" d="M16503 5909 c-560 -35 -887 -227 -1014 -598 -11 -30 -19 -56 -19 -58
0 -1 164 -3 364 -3 l364 0 30 53 c52 93 144 137 281 137 95 0 143 -13 184 -50
28 -24 32 -35 31 -74 -2 -91 -72 -153 -219 -191 -33 -8 -163 -29 -290 -46
-337 -44 -492 -79 -640 -144 -243 -108 -404 -318 -451 -586 -63 -366 213 -573
695 -520 202 22 367 80 526 186 50 33 94 62 99 64 4 2 5 -41 1 -98 l-7 -101
390 0 c375 0 391 1 397 19 3 12 -4 33 -19 56 -45 66 -44 82 29 367 204 796
245 961 256 1042 42 321 -100 478 -477 530 -143 20 -347 26 -511 15z m66
-1231 c-49 -177 -145 -310 -266 -370 -114 -56 -276 -51 -346 12 -28 25 -32 34
-31 77 1 94 73 182 179 222 31 12 132 39 223 60 92 21 183 46 202 54 59 26 61
24 39 -55z"/>
<path fill="#00803e" d="M19220 5905 c-183 -39 -335 -124 -496 -277 -41 -39 -74 -65 -74 -59
0 11 53 228 66 274 5 16 -14 17 -342 15 l-348 -3 -253 -980 c-139 -539 -253
-983 -253 -987 0 -5 170 -8 378 -8 l377 0 143 552 c154 596 181 674 262 762
61 66 131 97 232 103 73 4 88 2 127 -19 76 -39 86 -62 85 -191 0 -111 -1 -117
-136 -632 -75 -286 -140 -532 -143 -547 l-7 -28 379 0 379 0 162 633 c90 347
170 668 177 712 19 108 19 276 0 350 -44 167 -150 272 -326 321 -77 22 -307
27 -389 9z"/>
<path fill="#00803e" d="M13120 5894 c-165 -35 -329 -123 -488 -262 -44 -38 -72 -57 -68 -46
3 11 18 74 34 142 l29 122 -348 0 c-192 0 -349 -2 -349 -4 0 -5 -499 -1936
-506 -1958 -5 -17 17 -18 375 -18 l380 0 10 38 c5 20 66 254 136 520 69 265
135 511 146 545 50 145 127 249 217 290 65 30 192 31 242 2 57 -33 72 -74 67
-180 -4 -75 -28 -183 -147 -639 -78 -302 -144 -555 -147 -563 -4 -11 60 -13
376 -13 l380 0 10 38 c6 20 68 260 140 533 71 272 144 532 161 578 42 108 108
195 180 235 50 28 63 31 145 31 102 0 131 -12 165 -68 28 -45 26 -146 -4 -277
-14 -58 -81 -321 -149 -585 -69 -264 -124 -482 -122 -483 2 -2 174 0 382 5
l378 8 152 585 c202 779 198 759 198 955 -1 179 -8 210 -71 302 -89 130 -271
192 -527 180 -136 -6 -228 -28 -342 -81 -98 -45 -213 -125 -299 -207 l-73 -68
-17 57 c-22 70 -66 141 -114 183 -111 98 -346 143 -532 103z"/>
<path fill="#00803e" d="M10776 5833 c-3 -10 -116 -448 -251 -973 -135 -525 -248 -963 -251
-972 -5 -17 18 -18 375 -18 210 0 381 3 381 6 0 6 498 1941 505 1962 3 9 -76
12 -375 12 -352 0 -379 -1 -384 -17z"/>
<path fill="#00803e" d="M13605 3073 c-105 -16 -233 -59 -315 -105 -276 -155 -478 -461 -562
-852 -29 -133 -32 -449 -5 -563 70 -302 243 -496 507 -570 54 -15 102 -18 275
-17 203 0 214 1 325 31 200 54 451 171 471 218 8 18 169 845 169 866 0 6 -168
8 -422 7 l-422 -3 -33 -165 c-17 -91 -32 -168 -32 -172 -1 -5 107 -8 239 -8
186 0 240 -3 239 -12 0 -7 -12 -76 -27 -153 l-27 -140 -75 -32 c-156 -67 -242
-86 -390 -87 -105 -1 -146 3 -185 17 -107 37 -193 132 -231 252 -22 69 -30
311 -14 428 34 255 149 488 295 600 154 117 377 157 539 97 97 -37 190 -139
231 -255 10 -27 21 -54 25 -58 6 -6 349 30 358 39 10 8 -45 172 -85 254 -39
79 -61 109 -132 180 -98 97 -163 136 -296 175 -77 23 -112 28 -240 30 -82 2
-163 1 -180 -2z"/>
<path fill="#00803e" d="M22600 3065 c-240 -51 -395 -186 -463 -400 -17 -55 -22 -94 -22 -185
1 -137 23 -216 89 -314 63 -92 149 -150 426 -289 274 -137 329 -177 350 -257
26 -99 -17 -202 -107 -256 -118 -70 -345 -74 -481 -8 -85 42 -117 104 -137
272 l-7 53 -37 -5 c-20 -3 -103 -8 -185 -12 l-149 -7 7 -86 c22 -296 158 -481
415 -565 120 -40 197 -49 369 -44 143 4 165 7 247 35 128 44 179 76 270 167
134 134 185 258 185 452 0 203 -70 335 -238 442 -42 27 -169 96 -282 152 -239
119 -307 164 -341 223 -46 82 -22 205 50 256 53 38 111 53 211 54 122 1 191
-19 253 -73 51 -45 81 -99 97 -178 l12 -52 76 5 c43 3 126 8 186 11 l108 6 -7
56 c-33 264 -199 458 -455 532 -97 28 -341 37 -440 15z"/>
<path fill="#00803e" d="M37492 3069 c-301 -50 -501 -283 -502 -585 0 -185 60 -318 194 -426
36 -29 158 -97 305 -172 135 -68 265 -138 288 -155 108 -78 119 -217 27 -320
-69 -77 -125 -95 -294 -96 -151 0 -194 9 -266 58 -65 43 -92 98 -107 216 l-11
93 -41 -6 c-22 -3 -105 -8 -184 -12 l-144 -7 6 -91 c16 -255 121 -425 321
-521 145 -69 201 -80 416 -80 212 0 263 10 398 76 206 101 338 302 350 531 11
220 -59 368 -225 478 -43 28 -172 98 -287 156 -243 122 -308 163 -343 215 -65
98 -27 236 78 290 93 47 280 44 378 -6 78 -39 132 -119 150 -218 l7 -42 69 2
c39 1 123 5 188 9 l118 6 -6 42 c-14 96 -29 146 -71 231 -112 231 -328 347
-644 344 -63 -1 -139 -5 -168 -10z"/>
<path fill="#00803e" d="M7232 2994 c-6 -33 -95 -492 -197 -1021 -102 -529 -185 -967 -185
-972 0 -14 961 -15 1085 -1 210 24 333 75 440 184 177 178 241 456 151 652
-41 89 -152 190 -228 209 -16 4 -28 10 -27 14 0 3 31 21 69 39 177 84 272 237
273 442 2 258 -139 433 -394 486 -58 12 -173 17 -525 21 l-451 5 -11 -58z
m869 -309 c54 -19 86 -49 110 -100 58 -125 -24 -296 -162 -341 -72 -23 -585
-34 -577 -12 3 7 25 115 48 241 l44 227 247 0 c196 0 255 -3 290 -15z m-129
-836 c75 -16 124 -46 158 -97 48 -73 51 -155 9 -252 -44 -100 -126 -151 -269
-169 -73 -10 -570 -16 -570 -8 0 2 22 120 50 262 27 143 50 263 50 268 0 12
513 8 572 -4z"/>
<path fill="#00803e" d="M9682 3033 c-23 -44 -1031 -1982 -1046 -2011 l-17 -32 201 0 200 0
112 225 113 225 376 0 376 0 27 -202 c15 -112 30 -213 33 -226 5 -22 7 -22
189 -22 l184 0 -5 22 c-3 13 -70 464 -150 1003 -80 539 -148 992 -151 1008
l-6 27 -213 0 c-194 0 -215 -2 -223 -17z m208 -814 c27 -206 52 -386 55 -401
l5 -28 -281 0 c-243 0 -280 2 -276 15 5 13 234 428 384 698 30 54 57 96 59 94
3 -3 27 -173 54 -378z"/>
<path fill="#00803e" d="M11066 3023 c-25 -124 -386 -2012 -386 -2021 0 -9 46 -12 180 -12 99
0 180 3 180 6 0 12 261 1359 264 1362 5 4 1 13 272 -720 l239 -648 181 0 181
0 12 58 c61 314 381 1987 381 1994 0 4 -81 8 -180 8 -99 0 -180 -3 -180 -6 0
-6 -248 -1298 -256 -1333 -3 -13 -8 -20 -12 -17 -4 4 -119 310 -257 679 l-250
672 -182 3 -181 2 -6 -27z"/>
<path fill="#00803e" d="M15035 3038 c-2 -7 -90 -461 -195 -1008 -105 -547 -194 -1005 -197
-1018 l-5 -22 676 0 676 0 5 22 c3 13 18 89 34 171 l28 147 -479 0 c-418 0
-478 2 -478 15 0 8 72 390 160 848 88 458 160 838 160 845 0 18 -379 17 -385
0z"/>
<path fill="#00803e" d="M16645 2029 c-291 -561 -531 -1024 -533 -1029 -2 -6 70 -10 195 -10
l198 0 113 225 112 225 374 0 c290 0 375 -3 378 -12 3 -7 18 -109 34 -225 l28
-213 183 0 c152 0 183 2 183 14 0 8 -67 466 -150 1018 -82 552 -150 1009 -150
1016 0 9 -50 12 -217 12 l-218 -1 -530 -1020z m736 168 c28 -219 50 -400 47
-402 -3 -3 -129 -4 -280 -3 l-276 3 226 409 c124 225 227 405 228 400 2 -5 26
-188 55 -407z"/>
<path fill="#00803e" d="M18361 2044 c-107 -555 -197 -1020 -199 -1032 l-5 -24 469 5 c518 5
542 7 701 72 205 83 368 246 490 490 74 147 115 297 134 485 44 437 -101 795
-376 931 -133 65 -170 69 -620 76 l-400 6 -194 -1009z m966 642 c63 -20 139
-85 175 -153 75 -138 87 -412 27 -646 -40 -160 -142 -341 -246 -439 -106 -98
-178 -118 -462 -125 -206 -6 -213 -5 -208 13 3 10 62 318 132 684 69 366 128
671 131 679 7 20 377 9 451 -13z"/>
<path fill="#00803e" d="M20261 2037 c-107 -556 -196 -1020 -199 -1029 -4 -17 36 -18 736 -18
l740 0 31 160 c17 88 31 165 31 170 0 7 -191 10 -545 10 -513 0 -545 1 -545
18 0 9 20 109 44 222 24 113 49 231 56 263 l11 57 489 0 c457 0 489 1 494 18
3 9 17 80 31 157 14 77 28 148 31 158 5 16 -23 17 -486 17 l-492 0 5 23 c3 12
22 108 42 212 20 105 38 198 41 208 5 16 38 17 509 17 471 0 504 1 509 18 3 9
17 80 31 157 14 77 28 148 31 158 5 16 -33 17 -698 17 l-703 0 -194 -1013z"/>
<path fill="#00803e" d="M23986 3033 c-3 -10 -91 -466 -196 -1013 -105 -547 -193 -1003 -196
-1012 -5 -17 9 -18 190 -18 177 0 195 2 200 18 2 9 41 208 86 442 44 234 83
433 86 443 5 16 31 17 369 17 l365 0 -6 -27 c-3 -16 -42 -221 -88 -458 l-83
-430 190 -3 c105 -1 194 1 197 5 4 5 94 463 200 1018 106 556 195 1016 197
1023 4 9 -38 12 -190 12 -178 0 -196 -2 -201 -17 -2 -10 -37 -190 -78 -400
l-73 -383 -362 0 c-342 0 -363 1 -363 18 0 15 131 713 144 765 4 16 -10 17
-189 17 -176 0 -194 -2 -199 -17z"/>
<path fill="#00803e" d="M26550 2063 c-282 -544 -524 -1007 -538 -1030 l-24 -43 201 0 201 0
112 225 113 225 377 0 c208 0 378 -1 378 -3 0 -1 14 -99 30 -217 17 -118 30
-218 30 -222 0 -5 84 -8 186 -8 l185 0 -7 47 c-4 27 -73 489 -153 1028 l-147
980 -215 3 -215 2 -514 -987z m715 147 c25 -195 48 -370 52 -387 l5 -33 -282
0 c-155 0 -280 4 -278 8 2 5 102 188 223 406 165 299 221 393 227 379 4 -10
28 -178 53 -373z"/>
<path fill="#00803e" d="M28416 3033 c-3 -10 -91 -466 -196 -1013 -105 -547 -194 -1003 -196
-1012 -5 -17 9 -18 190 -18 177 0 195 2 200 18 3 9 91 467 196 1017 105 550
193 1006 195 1013 3 9 -39 12 -190 12 -176 0 -194 -2 -199 -17z"/>
<path fill="#00803e" d="M29176 3038 c-3 -7 -91 -461 -196 -1008 -104 -547 -192 -1005 -195
-1018 l-5 -22 194 0 195 0 10 53 c22 104 151 781 151 789 0 11 236 10 283 -1
80 -19 141 -83 206 -218 38 -78 183 -456 217 -566 l18 -57 208 0 c114 0 208 2
208 4 0 7 -97 258 -140 361 -73 176 -167 358 -225 433 -30 40 -55 75 -55 78 0
2 10 4 23 4 12 0 56 9 97 21 289 80 450 300 450 617 0 226 -93 409 -244 478
-117 53 -152 56 -693 61 -415 4 -504 3 -507 -9z m955 -359 c20 -9 49 -34 65
-55 27 -35 29 -44 29 -128 0 -102 -16 -144 -82 -217 -89 -99 -168 -118 -506
-126 -208 -5 -247 -4 -243 8 3 8 26 124 51 259 25 135 48 253 51 263 5 17 23
18 302 15 249 -3 303 -6 333 -19z"/>
<path fill="#00803e" d="M31086 3033 c-3 -10 -91 -466 -196 -1013 -105 -547 -194 -1003 -196
-1013 -5 -16 30 -17 673 -15 l678 3 26 135 c14 74 28 150 32 168 l7 32 -480 0
c-344 0 -480 3 -480 11 0 14 319 1679 325 1697 3 9 -39 12 -190 12 -176 0
-194 -2 -199 -17z"/>
<path fill="#00803e" d="M32480 2043 c-106 -555 -196 -1018 -198 -1030 l-4 -23 196 0 c108 0
196 3 196 6 0 3 88 463 195 1021 107 559 195 1019 195 1024 0 5 -87 9 -193 9
l-193 0 -194 -1007z"/>
<path fill="#00803e" d="M33241 2038 c-107 -557 -197 -1021 -199 -1030 -4 -17 9 -18 176 -18
135 0 181 3 184 13 3 6 63 314 134 684 71 369 131 669 134 667 3 -3 118 -310
256 -682 l251 -677 181 -3 c166 -2 181 -1 186 15 3 10 91 468 196 1018 105
550 193 1006 195 1013 3 9 -36 12 -178 12 l-182 0 -129 -673 c-71 -369 -131
-677 -135 -683 -3 -7 -120 296 -260 672 l-254 684 -181 0 -181 0 -194 -1012z"/>
<path fill="#00803e" d="M35322 2993 c-116 -598 -382 -1992 -382 -1997 0 -3 332 -6 738 -6
l738 0 28 150 c15 82 30 159 33 170 5 20 3 20 -547 20 -520 0 -551 1 -546 18
3 9 28 127 56 262 28 135 54 253 56 263 5 16 37 17 495 17 269 0 489 2 489 3
0 2 13 73 30 158 16 85 30 162 30 172 0 16 -30 17 -486 17 l-486 0 5 28 c2 15
22 118 43 229 l39 203 508 0 c279 0 507 2 507 4 0 2 14 75 30 161 17 86 30
163 30 171 0 12 -103 14 -699 14 l-698 0 -11 -57z"/>
</g>
</svg>
