<svg width="209" height="61" viewBox="0 0 209 61" fill="none" xmlns="http://www.w3.org/2000/svg">
<g clip-path="url(#clip0_927_7600)">
<path opacity="0.97" fill-rule="evenodd" clip-rule="evenodd" d="M104.052 0C104.422 0.490671 104.645 1.04495 104.724 1.66737C105.395 1.09038 106.16 0.913194 107.023 1.13809C106.623 1.33572 106.296 1.61967 106.046 1.99222C108.906 1.69236 111.144 2.72368 112.761 5.0839C112.741 5.12479 112.714 5.13161 112.68 5.10435C111.049 3.93219 109.231 3.43016 107.228 3.59826C110.233 4.33654 111.975 6.2288 112.457 9.27505C111.464 8.09154 110.347 7.05567 109.1 6.16292C108.738 5.91532 108.359 5.71087 107.959 5.55186C109.322 7.24195 109.831 9.1592 109.486 11.3104C108.945 9.40226 107.927 7.80077 106.435 6.50821C106.721 7.95978 106.776 9.42498 106.598 10.9038C106.546 11.3331 106.458 11.7534 106.335 12.1646C106.006 10.8288 105.606 9.5113 105.136 8.21647C104.877 7.52363 104.524 6.8853 104.077 6.30377C103.629 6.91483 103.277 7.57815 103.018 8.29825C102.56 9.56809 102.164 10.8584 101.839 12.1646C101.371 10.2746 101.337 8.38912 101.737 6.50821C100.245 7.79622 99.2339 9.39545 98.7068 11.3104C98.3434 9.15693 98.8522 7.2374 100.233 5.55186C99.5065 5.88351 98.8272 6.30604 98.198 6.81261C97.303 7.54407 96.4897 8.35959 95.756 9.25461C96.0763 6.65132 97.487 4.86128 99.988 3.88448C100.306 3.76409 100.631 3.67095 100.965 3.60053C99.9994 3.4824 99.0499 3.56418 98.1162 3.84359C97.1508 4.12982 96.2558 4.55688 95.4312 5.12479C96.2489 3.80043 97.4007 2.85771 98.8908 2.29661C99.9562 1.96041 101.042 1.86501 102.146 2.01266C101.896 1.63784 101.571 1.3448 101.169 1.13809C102.012 0.922281 102.773 1.08357 103.448 1.62648C103.554 1.04949 103.757 0.506573 104.052 0Z" fill="#006936"/>
<path opacity="0.99" fill-rule="evenodd" clip-rule="evenodd" d="M80.1658 9.07513C87.6531 10.5381 95.1335 12.0305 102.607 13.5502C102.723 15.9968 102.809 18.4365 102.871 20.874C100.522 19.6632 98.0935 18.6387 95.5879 17.8027C92.9528 16.9395 90.2677 16.7351 87.5304 17.1917C89.1614 17.2394 90.7766 17.4302 92.3735 17.7618C94.3112 18.3116 96.183 19.0317 97.989 19.9176C99.411 20.6286 100.808 21.3828 102.18 22.1756C99.9494 23.5568 97.6823 24.8857 95.3857 26.1623C95.756 26.6212 96.149 27.0619 96.5647 27.4844C96.6056 27.5117 96.6464 27.5117 96.6873 27.4844C98.7613 26.1441 100.856 24.8334 102.973 23.5568C103.148 27.4117 103.291 31.2644 103.4 35.1125C101.137 32.6115 98.8658 30.1172 96.5851 27.6252C95.8854 28.0796 95.1449 28.468 94.368 28.786C92.8415 29.279 91.2968 29.3608 89.7293 29.0291C89.1751 28.886 88.6185 28.752 88.062 28.6225C90.7107 28.4975 93.1095 27.6707 95.2653 26.1396C90.1996 20.5696 85.1452 14.9882 80.109 9.39543C80.0681 9.27731 80.0886 9.16827 80.1658 9.07513Z" fill="#006936"/>
<path opacity="0.99" fill-rule="evenodd" clip-rule="evenodd" d="M127.734 9.07517C128.018 9.01383 128.133 9.12287 128.079 9.40001C123.011 14.97 117.959 20.5514 112.923 26.1442C115.072 27.6843 117.473 28.5112 120.126 28.6271C119.267 28.8565 118.397 29.045 117.523 29.1972C115.749 29.3676 114.081 29.0291 112.518 28.1796C112.207 27.9955 111.894 27.8138 111.582 27.6298C109.315 30.1263 107.051 32.6229 104.788 35.1171L104.747 34.8922C104.888 31.1145 105.045 27.3368 105.215 23.5591C107.321 24.8516 109.418 26.1623 111.501 27.4867C111.542 27.514 111.582 27.514 111.623 27.4867C112.007 27.046 112.4 26.6099 112.802 26.1851C110.508 24.8902 108.243 23.5545 106.008 22.1779C108.604 20.6082 111.33 19.2998 114.186 18.2503C115.203 17.8845 116.248 17.6256 117.318 17.4779C118.427 17.3371 119.538 17.2417 120.655 17.194C117.963 16.7442 115.319 16.9327 112.72 17.7641C110.172 18.6115 107.705 19.6473 105.315 20.8763C105.363 18.4343 105.451 15.9945 105.578 13.5525C112.966 12.0555 120.351 10.5631 127.734 9.07517Z" fill="#006936"/>
<path opacity="0.95" fill-rule="evenodd" clip-rule="evenodd" d="M81.6309 37.5182H83.2982V39.1856H81.6309V37.5182Z" fill="#006936"/>
<path opacity="0.98" fill-rule="evenodd" clip-rule="evenodd" d="M84.8862 37.5182H86.515V39.1856H84.8862V37.5182Z" fill="#006936"/>
<path opacity="0.98" fill-rule="evenodd" clip-rule="evenodd" d="M123.826 37.5182H125.494C125.501 40.2305 125.494 42.9428 125.473 45.6574C124.951 46.1799 124.428 46.7024 123.906 47.2248C118.047 47.2453 112.187 47.2521 106.328 47.2453C106.335 47.7882 106.328 48.3311 106.308 48.874C105.772 49.4102 105.235 49.9463 104.699 50.4824C103.073 50.5028 101.444 50.5096 99.8153 50.5028V48.8354H104.658C104.665 47.7905 104.658 46.7455 104.638 45.7029L103.111 47.2294C102.012 47.2498 100.915 47.2567 99.8153 47.2498C99.8085 45.6097 99.8153 43.9673 99.8357 42.3272L101.403 40.7598C103.043 40.7394 104.686 40.7325 106.326 40.7394V45.5825H107.262C107.255 44.5103 107.262 43.4403 107.282 42.3681C107.818 41.832 108.354 41.2959 108.89 40.7598C110.517 40.7394 112.146 40.7325 113.774 40.7394V42.4067H108.931V45.5802H114.749V40.7371H116.416V45.5802H117.963V40.7371H119.631V45.5802H121.219V40.7371H122.886V45.5802H123.822C123.826 42.8883 123.826 40.2033 123.826 37.5182ZM101.487 42.3999H104.661V45.5734H101.487V42.3999Z" fill="#006936"/>
<path opacity="0.97" fill-rule="evenodd" clip-rule="evenodd" d="M126.471 37.5182H128.138V47.243H126.471V37.5182Z" fill="#006936"/>
<path opacity="0.98" fill-rule="evenodd" clip-rule="evenodd" d="M81.6311 40.7325H86.5151V45.5757H89.7294V40.7325H91.3582C91.365 42.3727 91.3582 44.015 91.3377 45.6552L89.7703 47.2226C88.1438 47.243 86.5151 47.2498 84.8863 47.243C84.8931 46.7274 84.8863 46.2117 84.8659 45.6961L83.3393 47.2226C82.2262 47.243 81.1154 47.2498 80.0023 47.243C79.9955 45.6143 80.0023 43.9878 80.0228 42.359C80.5679 41.8229 81.1041 41.28 81.6311 40.7325ZM81.672 42.3999H84.8863V45.6143H81.672V42.3999Z" fill="#006936"/>
<path opacity="0.97" fill-rule="evenodd" clip-rule="evenodd" d="M93.959 40.7325H98.843C98.8498 42.3727 98.843 44.015 98.8226 45.6552L97.2551 47.2226C95.615 47.243 93.9726 47.2498 92.3325 47.243V45.5757H97.1756V42.4022H93.9613C93.959 41.8434 93.959 41.2868 93.959 40.7325Z" fill="#006936"/>
<path opacity="0.95" fill-rule="evenodd" clip-rule="evenodd" d="M86.4717 48.8286H88.1391V50.496H86.4717V48.8286Z" fill="#006936"/>
<path opacity="0.98" fill-rule="evenodd" clip-rule="evenodd" d="M89.7271 48.8286H91.3558V50.496H89.7271V48.8286Z" fill="#006936"/>
<path opacity="0.98" fill-rule="evenodd" clip-rule="evenodd" d="M111.823 51.2706H113.491V60.9955H111.823C111.83 60.4662 111.823 59.9369 111.803 59.4076L110.235 60.975C109.15 60.9955 108.066 61.0023 106.98 60.9955C106.973 59.3554 106.98 57.713 107.001 56.0728L108.568 54.5054C109.654 54.485 110.737 54.4782 111.823 54.485V51.2706ZM108.609 56.1524H111.823V59.3258H108.609V56.1524Z" fill="#006936"/>
<path opacity="0.97" fill-rule="evenodd" clip-rule="evenodd" d="M114.427 51.2706H116.094V52.8994H114.427V51.2706Z" fill="#006936"/>
<path opacity="0.98" fill-rule="evenodd" clip-rule="evenodd" d="M86.1471 52.8585H91.0698V54.5258H86.2266V56.1137H91.0698C91.0766 57.1995 91.0698 58.2831 91.0493 59.3689C90.5132 59.905 89.9771 60.4411 89.441 60.9773C87.8145 60.9977 86.1858 61.0045 84.557 60.9977V59.3303H89.4001V57.7425H84.557C84.5502 56.643 84.557 55.5458 84.5774 54.4463C85.1113 53.9216 85.6338 53.3923 86.1471 52.8585Z" fill="#006936"/>
<path opacity="0.98" fill-rule="evenodd" clip-rule="evenodd" d="M93.6341 54.485H98.5181V60.9955H96.8894C96.8962 60.4662 96.8894 59.9369 96.8689 59.4076C96.3464 59.9301 95.824 60.4526 95.3015 60.975C94.2157 60.9955 93.1321 61.0023 92.0463 60.9955C92.0394 59.3554 92.0463 57.713 92.0667 56.0729C92.5983 55.5481 93.1207 55.0188 93.6341 54.485ZM93.675 56.1524H96.8894V59.3258H93.675V56.1524Z" fill="#006936"/>
<path opacity="0.97" fill-rule="evenodd" clip-rule="evenodd" d="M99.4928 54.485H101.16V59.3281H104.334V54.485H106.001C106.008 56.1137 106.001 57.7402 105.981 59.369C105.444 59.9051 104.908 60.4412 104.372 60.9773C102.746 60.9977 101.117 61.0046 99.4883 60.9977C99.4928 58.8261 99.4928 56.6544 99.4928 54.485Z" fill="#006936"/>
<path opacity="0.97" fill-rule="evenodd" clip-rule="evenodd" d="M114.427 54.485H116.094V60.9955H114.427V54.485Z" fill="#006936"/>
<path opacity="0.97" fill-rule="evenodd" clip-rule="evenodd" d="M118.659 54.485H123.581V60.9955H121.914C121.921 60.4662 121.914 59.9369 121.893 59.4076L120.326 60.975C119.24 60.9955 118.157 61.0023 117.071 60.9955C117.064 59.3554 117.071 57.713 117.091 56.0729C117.623 55.5481 118.145 55.0188 118.659 54.485ZM118.74 56.1524H121.914V59.3258H118.74V56.1524Z" fill="#006936"/>
</g>
<defs>
<clipPath id="clip0_927_7600">
<rect width="48.1381" height="61" fill="white" transform="translate(80)"/>
</clipPath>
</defs>
</svg>
