<svg width="209" height="61" viewBox="0 0 209 61" fill="none" xmlns="http://www.w3.org/2000/svg">
<g clip-path="url(#clip0_927_7620)">
<path d="M137.173 35.0221C138.338 34.5264 138.58 33.6848 138.58 32.1401C138.58 30.676 138.58 29.2119 138.58 27.7478C138.58 24.762 138.799 22.4103 137.715 19.8164C136.182 16.1735 132.285 12.7035 126.66 13.4529C115.742 14.8939 114.659 29.6615 122.901 33.9039C124.827 34.8953 127.639 35.5985 130.187 35.0336C132.85 34.4457 132.435 30.4108 129.599 30.5031C127.121 30.5837 125.207 30.7913 123.259 28.2205C120.746 24.8888 122.141 17.8797 128.124 17.9604C130.913 17.995 132.597 19.5628 133.45 21.488C134.729 24.3816 133.519 32.336 134.222 33.9039C134.603 34.7569 135.813 35.6216 137.185 35.0336L137.173 35.0221Z" fill="#19BCB9"/>
<path d="M91.1526 13.7065C90.1266 14.4904 85.4115 25.5805 84.5469 26.4912C83.8091 25.0617 83.1174 23.6438 82.4027 22.1451L79.1287 15.574C78.7137 14.6979 78.5177 13.9947 77.7799 13.5566C76.0276 12.5191 73.8488 13.9947 74.3214 16.0813C74.4482 16.6231 80.0509 27.7939 80.8003 29.281C82.2528 32.2092 82.2643 31.1947 81.0078 33.7886C80.3161 35.2181 79.5552 36.6706 78.8635 38.1347C77.9874 40.0022 79.4976 41.9159 81.4458 41.4433C82.9906 41.0744 83.5094 39.08 84.2357 37.6505C87.1408 31.921 90.0113 25.6958 92.9048 20.047C93.3429 19.1939 94.8877 16.3925 94.8877 15.4588C94.8877 13.6027 92.6973 12.4845 91.1526 13.6719V13.7065Z" fill="#19BCB9"/>
<path d="M115.316 31.4137C115.316 24.5775 116.273 18.3177 110.059 14.6172C108.422 13.6488 106.185 13.1416 103.937 13.4644C99.8911 14.0408 97.0667 16.8421 95.9023 20.2314C95.1184 22.514 95.2452 24.3354 95.2452 26.9177C95.2452 28.4625 94.9685 33.0623 95.5565 34.0537C96.6286 35.8751 99.4876 35.4486 99.7988 33.2582L99.8219 25.8687C99.8219 23.3671 99.9372 21.5341 101.24 19.9201C103.776 16.7845 108.895 17.3839 110.347 21.7992C110.981 23.736 110.716 29.7076 110.728 32.4743C110.728 33.7655 111.131 34.4687 111.95 34.9414C112.941 35.5062 114.128 35.1373 114.693 34.5494C115.396 33.8116 115.316 32.7741 115.316 31.4368V31.4137Z" fill="#19BCB9"/>
<path d="M153.52 23.171C150.384 21.8568 145.081 21.6839 146.027 18.7558C146.707 16.6576 150.269 17.3263 152.056 18.1448C152.944 18.5482 153.808 19.3552 155.019 19.0555C156.598 18.6751 157.866 16.1504 154.557 14.6056C152.621 13.6949 150.304 13.0954 147.813 13.3606C145.208 13.6488 143.537 14.6978 142.487 16.1504C141.335 17.7413 140.885 20.5772 141.992 22.6638C144.101 26.618 151.387 25.9263 152.621 28.2665C153.647 30.2263 151.295 31.6788 148.056 31.0678C144.597 30.4107 144.101 28.3126 142.084 28.9582C141.185 29.2464 140.424 30.1917 140.712 31.4829C141.196 33.6156 146.488 35.1604 148.943 35.2526C153.912 35.437 158.143 32.8317 157.267 27.4711C156.898 25.2576 155.318 23.9434 153.497 23.1826L153.52 23.171Z" fill="#19BCB9"/>
<path d="M63.9229 8.49552C62.9661 7.82688 60.5913 7.96522 59.3693 8.13814C56.2797 8.56469 54.1355 9.99418 52.902 11.8963C51.2765 14.3749 51.0229 16.7958 51.0229 20.3119V30.4682C51.0229 32.1974 50.7577 33.9267 51.9682 34.6875C53.4092 35.5983 54.8733 34.9412 55.4036 33.7538C55.8071 32.8546 55.5996 25.3728 55.5996 23.7588C55.5996 19.2628 54.735 13.4526 59.7728 12.6918C61.4213 12.4497 63.1621 13.0722 64.2457 12.0347C65.3524 10.9625 64.9605 9.21026 63.9229 8.48399V8.49552Z" fill="#19BCB9"/>
<path d="M71.7278 13.0839C71.7278 12.0695 71.8777 10.1788 71.4858 9.40645C71.1169 8.65712 70.1139 7.88473 68.8689 8.24211C67.8544 8.53031 67.2088 9.19895 67.1396 10.467C67.082 11.7351 67.1396 13.1646 67.1396 14.4443V30.1456C67.1396 31.1486 67.0013 33.0507 67.3702 33.8231C68.304 35.8175 71.6356 35.5178 71.7278 32.7625C71.8316 29.4655 71.7278 24.3585 71.7278 20.9231V13.0724V13.0839Z" fill="#19BCB9"/>
<path d="M121.818 43.9103C120.457 43.772 121.195 46.4465 120.988 48.7867C119.212 48.7867 117.08 49.0865 116.261 47.8875C114.739 45.6856 116.618 40.6824 115.028 40.5326C113.967 40.4403 114.197 41.72 114.197 42.6192C114.197 45.5243 113.598 49.928 117.99 50.2508C118.878 50.32 119.904 50.2623 120.803 50.2739C122.798 50.2739 122.475 50.5505 122.475 46.1929C122.475 45.2937 122.74 44.0141 121.829 43.9218L121.818 43.9103Z" fill="#19BCB9"/>
<path d="M122.037 41.8813C122.855 41.5355 122.302 40.0022 121.322 40.6132C120.526 41.1205 121.126 42.2618 122.037 41.8813Z" fill="#19BCB9"/>
<path d="M112.249 43.9333C111.027 43.5183 111.246 45.1092 111.246 45.9623C111.246 48.9481 110.843 48.9481 107.822 48.7521C108.018 47.8068 108.157 47.7607 108.157 46.5848C108.157 45.7663 108.237 44.844 108.064 44.1178C106.266 42.9765 106.762 45.8009 106.704 47.0113C106.612 48.9942 105.494 48.8789 103.661 48.7521C103.568 47.4379 103.811 45.2245 103.545 44.1293C101.851 42.9765 102.185 45.5012 102.185 46.6886C102.185 48.1526 102.185 49.6282 102.185 51.0923C99.3261 51.2076 97.1012 51.5304 96.7553 48.6483C96.5132 46.5733 97.3433 43.2186 95.6486 43.9448C95.1414 44.1639 95.2336 44.7979 95.2336 45.432C95.2451 49.1095 94.9339 52.591 99.9602 52.591C104.445 52.591 103.465 52.9599 103.672 50.2738C108.675 49.8703 112.722 51.761 112.745 46.7001C112.745 45.8701 113.022 44.1869 112.261 43.9333H112.249Z" fill="#19BCB9"/>
<path d="M130.717 41.7661C131.248 41.2934 130.913 40.0945 129.622 40.6709C129.219 41.8006 130.129 42.2848 130.717 41.7661Z" fill="#19BCB9"/>
<path d="M149.865 43.2186C148.955 43.6452 148.655 44.0832 148.009 44.4983C147.94 43.3109 148.24 41.5355 147.767 40.6709C146.764 40.3942 146.511 40.6478 146.511 41.6739V46.9076C146.511 47.6339 146.834 48.2795 147.606 47.876C148.136 47.6109 148.217 45.2937 151.018 44.3714C152.125 44.0025 154.062 44.0487 154.788 44.7403C155.526 45.4436 155.295 47.4956 155.295 48.7522C154.384 48.902 145.162 48.8213 143.398 48.7983C143.917 47.1382 143.755 46.7693 143.755 44.8095C143.755 44.0832 143.248 43.5645 142.603 44.0025C141.634 44.6366 143.398 48.7983 140.793 48.7983L139.536 48.7752C139.536 48.0605 139.617 44.7519 139.479 44.3253C139.283 43.7143 138.303 43.7028 138.107 44.3253C137.991 44.6827 138.049 46.1237 138.049 46.5849C138.049 48.879 138.545 50.8272 136.539 51.9685C135.04 52.8216 136.608 54.4586 138.418 52.3951C138.66 52.1069 138.856 51.8417 139.064 51.4613C139.283 51.0347 139.352 50.6312 139.536 50.2739H155.457C157.163 50.2854 156.817 50.0433 156.817 46.3773C156.817 42.1119 152.044 42.2041 149.877 43.2071L149.865 43.2186Z" fill="#19BCB9"/>
<path d="M142.834 51.7841C142.349 52.4643 142.96 53.2712 144.044 52.6948C144.424 51.3691 143.249 51.1962 142.834 51.7841Z" fill="#19BCB9"/>
<path d="M133.703 43.9449C132.47 43.5645 132.712 45.3168 132.712 45.8586V50.5851C132.712 51.2653 132.654 51.15 131.905 51.1385C127.754 51.0693 127.213 51.0463 127.213 46.6886C127.213 45.9047 127.455 44.3138 126.844 43.991C125.737 43.4031 125.737 44.821 125.737 45.6395C125.737 46.5849 125.668 47.7607 125.76 48.6715C125.933 50.5044 126.809 51.7725 128.25 52.3144C128.953 52.5795 133.484 52.8101 133.968 52.4181C134.441 52.0377 134.199 47.4725 134.199 46.4696C134.199 45.628 134.464 44.1524 133.715 43.9218L133.703 43.9449Z" fill="#19BCB9"/>
<path d="M140.585 52.3489C140.724 53.2596 142.188 53.0521 142.026 52.0607C141.888 51.2307 140.424 51.3114 140.585 52.3489Z" fill="#19BCB9"/>
<path d="M136.85 49.2133V41.5701C136.85 40.9591 136.735 40.5556 136.078 40.5671C135.456 40.5787 135.363 40.9706 135.363 41.5701V49.2133C135.363 49.8127 135.467 50.2508 136.078 50.2739C136.747 50.2969 136.839 49.8588 136.839 49.2133H136.85Z" fill="#19BCB9"/>
<path d="M58.7816 18.4791C55.8303 19.1132 56.7641 23.6092 59.773 22.9521C60.8336 22.7215 61.7674 21.6148 61.5022 20.243C61.2947 19.1478 60.1534 18.1909 58.7816 18.4791Z" fill="#19BCB9"/>
</g>
<defs>
<clipPath id="clip0_927_7620">
<rect width="106.394" height="45.398" fill="white" transform="translate(51 8)"/>
</clipPath>
</defs>
</svg>
